<?xml version="1.0" encoding="utf-8"?>
<!-- Generator: Adobe Illustrator 16.0.0, SVG Export Plug-In . SVG Version: 6.00 Build 0)  -->
<!DOCTYPE svg PUBLIC "-//W3C//DTD SVG 1.1//EN" "http://www.w3.org/Graphics/SVG/1.1/DTD/svg11.dtd">
<svg version="1.1" id="图层_1" xmlns="http://www.w3.org/2000/svg" xmlns:xlink="http://www.w3.org/1999/xlink" x="0px" y="0px"
	 width="218.989px" height="136.493px" viewBox="0 0 218.989 136.493" enable-background="new 0 0 218.989 136.493"
	 xml:space="preserve">
<path fill="none" stroke="#000000" stroke-miterlimit="10" d="M12.903,117.899c1.715-11.091,13.463-22.086,21.055-30.055
	c4.112-4.316,8.244-8.592,12.438-12.69c4.478-4.375,9.489-5.083,13.662-8.457c15.374-12.431,29.216-29.072,43.226-43.901
	c9.004-9.53,12.482-16.111,22.5-2.822c4.72,6.261,8.376,13.686,13.094,20.173c5.994,8.24,13.291,15.698,19.326,23.585
	c2.641,3.451,4.623,7.029,7.555,10.141c4.022,4.268,8.056,8.19,12.216,14.125c7.755,11.061,14.327,24.369,20.368,35.754
	c-33.197,1.518-67.699-2.85-100.514-5.83c-15.956-1.449-32.161-5.049-48.148-5.8c-10.745-0.505-27.788-1.898-37.777,1.777"/>
</svg>
